<svg xmlns="http://www.w3.org/2000/svg" xmlns:xlink="http://www.w3.org/1999/xlink" width="1920" height="2626" viewBox="0 0 1920 2626">
  <defs>
    <clipPath id="clip-Login_1">
      <rect width="1920" height="2626"/>
    </clipPath>
  </defs>
  <g id="Login_1" data-name="Login – 1" clip-path="url(#clip-Login_1)">
    <rect width="1920" height="2626" fill="#fff"/>
    <g id="background">
      <g id="Icon_material-pets" data-name="Icon material-pets" transform="matrix(0.788, -0.616, 0.616, 0.788, -2.679, 814.278)" opacity="0.54">
        <path id="Path_2" data-name="Path 2" d="M135.053,69.238c2.062,35.732-26.32,63.027-63.392,60.966S2.865,97.5.8,61.772,27.123-1.255,64.195.806s68.8,32.7,70.858,68.432Z" transform="translate(1.149 98.09)" fill="#ffe3c5"/>
        <path id="Path_3" data-name="Path 3" d="M135.053,69.239c2.062,35.732-26.32,63.027-63.392,60.966S2.865,97.5.8,61.772,27.123-1.256,64.195.806s68.8,32.7,70.858,68.432Z" transform="translate(116 1.292)" fill="#ffe3c5"/>
        <path id="Path_4" data-name="Path 4" d="M135.053,69.239c2.062,35.732-26.319,63.027-63.392,60.966S2.865,97.5.8,61.772,27.123-1.255,64.195.806s68.8,32.7,70.858,68.432Z" transform="translate(277.1 10.252)" fill="#ffe3c5"/>
        <path id="Path_5" data-name="Path 5" d="M135.053,69.238c2.062,35.732-26.32,63.027-63.392,60.966S2.865,97.5.8,61.772,27.123-1.256,64.195.806s68.8,32.7,70.858,68.432Z" transform="translate(403.898 120.49)" fill="#ffe3c5"/>
        <path id="Path_6" data-name="Path 6" d="M354.516,123.459c-24.883-27.7-45.782-51.3-70.933-79.013-13.157-14.662-29.805-29.518-48.959-36.774a61.17,61.17,0,0,0-8.995-2.822c-6.772-1.409-14.022-1.812-21-2.2s-14.23-.791-21.137.114A51.8,51.8,0,0,0,174.763,4.6c-18.437,5.166-33.2,18.275-45.016,31.548-21.836,25.1-40.138,46.523-62.242,71.606C34.287,139.7-6.776,174.821,4.311,227.8c9.31,26.83,30.418,54.059,66.025,63.52,19.824,4.972,81.5-6.817,148.092-3.114l4.833.269c66.588,3.7,130.014,22.193,149.406,19.66,34.74-5.549,52.818-30.856,59.1-56.561,5.277-52.331-40.117-92.261-77.246-128.119Z" transform="translate(67.319 198.025)" fill="#ffe3c5"/>
      </g>
      <g id="Icon_material-pets-2" data-name="Icon material-pets" transform="matrix(0.788, -0.616, 0.616, 0.788, 1133.445, 1239.763)" opacity="0.54">
        <path id="Path_2-2" data-name="Path 2" d="M135.053,69.238c2.062,35.732-26.32,63.027-63.392,60.966S2.865,97.5.8,61.772,27.123-1.255,64.195.806s68.8,32.7,70.858,68.432Z" transform="translate(1.149 98.09)" fill="#ffe3c5"/>
        <path id="Path_3-2" data-name="Path 3" d="M135.053,69.239c2.062,35.732-26.32,63.027-63.392,60.966S2.865,97.5.8,61.772,27.123-1.256,64.195.806s68.8,32.7,70.858,68.432Z" transform="translate(116 1.292)" fill="#ffe3c5"/>
        <path id="Path_4-2" data-name="Path 4" d="M135.053,69.239c2.062,35.732-26.319,63.027-63.392,60.966S2.865,97.5.8,61.772,27.123-1.255,64.195.806s68.8,32.7,70.858,68.432Z" transform="translate(277.1 10.252)" fill="#ffe3c5"/>
        <path id="Path_5-2" data-name="Path 5" d="M135.053,69.238c2.062,35.732-26.32,63.027-63.392,60.966S2.865,97.5.8,61.772,27.123-1.256,64.195.806s68.8,32.7,70.858,68.432Z" transform="translate(403.898 120.49)" fill="#ffe3c5"/>
        <path id="Path_6-2" data-name="Path 6" d="M354.516,123.459c-24.883-27.7-45.782-51.3-70.933-79.013-13.157-14.662-29.805-29.518-48.959-36.774a61.17,61.17,0,0,0-8.995-2.822c-6.772-1.409-14.022-1.812-21-2.2s-14.23-.791-21.137.114A51.8,51.8,0,0,0,174.763,4.6c-18.437,5.166-33.2,18.275-45.016,31.548-21.836,25.1-40.138,46.523-62.242,71.606C34.287,139.7-6.776,174.821,4.311,227.8c9.31,26.83,30.418,54.059,66.025,63.52,19.824,4.972,81.5-6.817,148.092-3.114l4.833.269c66.588,3.7,130.014,22.193,149.406,19.66,34.74-5.549,52.818-30.856,59.1-56.561,5.277-52.331-40.117-92.261-77.246-128.119Z" transform="translate(67.319 198.025)" fill="#ffe3c5"/>
      </g>
      <g id="Icon_material-pets-3" data-name="Icon material-pets" transform="matrix(0.809, -0.588, 0.588, 0.809, 1503.062, 1909.387)">
        <path id="Path_2-3" data-name="Path 2" d="M25.835,13.18c.4,6.871-5.061,12.12-12.19,11.723S.417,18.615.02,11.744,5.081-.375,12.21.021,25.439,6.309,25.835,13.18Z" transform="translate(0 18.613)" fill="#593c30"/>
        <path id="Path_3-3" data-name="Path 3" d="M25.835,13.18c.4,6.871-5.061,12.12-12.19,11.723S.417,18.615.02,11.744,5.081-.375,12.21.021,25.439,6.309,25.835,13.18Z" transform="translate(22.085 0)" fill="#593c30"/>
        <path id="Path_4-3" data-name="Path 4" d="M25.835,13.18c.4,6.871-5.061,12.12-12.19,11.723S.417,18.615.02,11.744,5.081-.375,12.21.021,25.439,6.309,25.835,13.18Z" transform="translate(53.063 1.723)" fill="#593c30"/>
        <path id="Path_5-3" data-name="Path 5" d="M25.835,13.18c.4,6.871-5.061,12.12-12.19,11.723S.417,18.615.02,11.744,5.081-.375,12.21.021,25.439,6.309,25.835,13.18Z" transform="translate(77.445 22.921)" fill="#593c30"/>
        <g id="Component_10_1" data-name="Component 10 – 1" transform="translate(13.064 38.122)">
          <path id="Path_6-3" data-name="Path 6" d="M67.7,23.314c-4.785-5.326-8.8-9.865-13.64-15.194-2.53-2.819-5.731-5.676-9.414-7.071a11.763,11.763,0,0,0-1.73-.543A27.616,27.616,0,0,0,38.874.083,22.171,22.171,0,0,0,34.81.105a9.96,9.96,0,0,0-1.678.353c-3.545.993-6.385,3.514-8.656,6.066-4.2,4.826-7.718,8.946-11.969,13.769C6.119,26.437-1.777,33.191.355,43.379a18.557,18.557,0,0,0,12.7,12.214c3.812.956,15.672-1.311,28.477-.6l.929.052c12.8.712,25,4.268,28.729,3.78,6.68-1.067,10.156-5.933,11.364-10.876C83.565,37.887,74.836,30.209,67.7,23.314Z" fill="#593c30"/>
        </g>
      </g>
      <g id="Icon_material-pets-4" data-name="Icon material-pets" transform="translate(378.055 199.71) rotate(34)">
        <path id="Path_2-4" data-name="Path 2" d="M25.933,11.712c-.387,6.844-6.5,12.7-13.657,13.091S-.367,19.955.019,13.112,6.52.407,13.676.02,26.32,4.868,25.933,11.712Z" transform="translate(0 22.766)" fill="#593c30"/>
        <path id="Path_3-4" data-name="Path 3" d="M25.933,11.712c-.387,6.844-6.5,12.7-13.657,13.091S-.367,19.955.019,13.112,6.52.407,13.676.02,26.32,4.868,25.933,11.712Z" transform="translate(24.443 1.68)" fill="#593c30"/>
        <path id="Path_4-4" data-name="Path 4" d="M25.933,11.712c-.387,6.844-6.5,12.7-13.657,13.091S-.367,19.955.019,13.112,6.52.407,13.676.02,26.32,4.868,25.933,11.712Z" transform="translate(55.539 0)" fill="#593c30"/>
        <path id="Path_5-4" data-name="Path 5" d="M25.933,11.712c-.387,6.844-6.5,12.7-13.657,13.091S-.367,19.955.019,13.112,6.52.407,13.676.02,26.32,4.868,25.933,11.712Z" transform="translate(77.742 18.567)" fill="#593c30"/>
        <path id="Path_6-4" data-name="Path 6" d="M70.4,20.205c-4.224-4.812-7.763-8.92-12.039-13.729-2.233-2.548-5.14-5.059-8.7-6.053A10.085,10.085,0,0,0,47.979.069a27.021,27.021,0,0,0-4.031.02A23.342,23.342,0,0,0,39.84.558,11.847,11.847,0,0,0,38.1,1.1c-3.7,1.386-6.852,4.224-9.439,7.033C23.87,13.429,19.843,17.945,15,23.248,7.84,30.107-.91,37.745.077,47.723,1.294,52.7,4.795,57.5,11.5,58.57c3.741.539,15.983-3.038,28.836-3.732l.933-.05c12.853-.694,24.767,1.528,28.59.63A18.58,18.58,0,0,0,82.587,43.266c2.178-10.2-5.761-16.935-12.183-23.061Z" transform="translate(7.62 37.945)" fill="#593c30"/>
      </g>
    </g>
  </g>
</svg>
