<svg xmlns="http://www.w3.org/2000/svg" width="51.427" height="45.645" viewBox="0 0 51.427 45.645">
  <path id="Icon_ionic-logo-facebook" data-name="Icon ionic-logo-facebook" d="M53.087,4.5H7.339A2.7,2.7,0,0,0,4.5,7.02V47.625a2.7,2.7,0,0,0,2.839,2.52H30.213V32.077H24.066V25.421h6.147V20.5c0-5.9,4.607-9.105,10.54-9.105,2.839,0,5.893.19,6.6.273v6.157H42.628c-3.228,0-3.844,1.355-3.844,3.352v4.244h7.687l-1,6.657H38.784V50.145h14.3a2.7,2.7,0,0,0,2.839-2.52V7.02A2.7,2.7,0,0,0,53.087,4.5Z" transform="translate(-4.5 -4.5)" fill="#fff"/>
</svg>
