<svg version="1.1" id="Layer_1" xmlns="http://www.w3.org/2000/svg" xmlns:xlink="http://www.w3.org/1999/xlink" x="0px" y="0px"
	 width="100%" viewBox="0 0 225 225" enable-background="new 0 0 225 225" xml:space="preserve">
<path fill="#FEFEFE" opacity="1.000000" stroke="none" 
	d="
M128.000000,226.000000 
	C85.333336,226.000000 43.166672,226.000000 1.000006,226.000000 
	C1.000004,151.000000 1.000004,76.000015 1.000002,1.000016 
	C75.999992,1.000010 150.999985,1.000010 225.999969,1.000005 
	C225.999985,75.999985 225.999985,150.999969 226.000000,225.999969 
	C193.500000,226.000000 161.000000,226.000000 128.000000,226.000000 
M114.637032,134.585159 
	C132.514420,134.585159 150.391815,134.585159 168.606216,134.585159 
	C165.974655,148.618469 158.303329,158.058578 147.200882,165.873795 
	C131.549149,174.760101 114.851311,176.742493 97.636337,172.248993 
	C76.606865,166.759872 63.129910,152.696487 55.202354,131.987198 
	C51.456318,119.374352 51.969570,106.765633 55.777187,93.700966 
	C62.392807,75.604889 74.529083,62.689262 92.701538,56.257748 
	C113.869469,48.766087 133.604843,52.420357 150.758362,65.392036 
	C160.876816,55.375538 170.757782,45.594124 180.759506,35.693169 
	C180.217667,35.218811 179.502991,34.542233 178.736954,33.929878 
	C152.186356,12.705787 122.104515,5.525523 89.190948,13.392772 
	C58.232948,20.792585 35.285023,39.155556 20.713003,68.578491 
	C10.795196,89.026337 7.985521,110.570114 12.397179,132.700668 
	C14.170296,141.595291 18.413462,149.997513 21.235809,159.314697 
	C21.953930,160.806747 22.593554,162.342789 23.401653,163.784393 
	C43.987621,200.509155 83.870934,220.933670 126.029518,215.841049 
	C146.629501,213.352631 165.089844,205.589813 180.868774,190.746490 
	C184.141327,187.203232 187.678009,183.866760 190.641479,180.081512 
	C204.679718,162.150360 211.122528,141.401260 211.727570,118.938423 
	C211.940186,111.044342 209.944992,103.090797 208.501328,94.986450 
	C208.501328,94.986450 208.017868,95.066429 207.090118,94.904861 
	C176.387115,94.959686 145.684097,95.014511 114.398773,95.076492 
	C114.238472,95.393448 114.078171,95.710403 113.732140,96.946548 
	C113.795349,108.956825 113.858566,120.967110 113.845245,133.502029 
	C113.931992,133.656021 114.018730,133.810013 114.637032,134.585159 
z"/>
<path fill="#EA4435" opacity="1.000000" stroke="none" 
	d="
M21.141098,67.999947 
	C35.285023,39.155556 58.232948,20.792585 89.190948,13.392772 
	C122.104515,5.525523 152.186356,12.705787 178.736954,33.929878 
	C179.502991,34.542233 180.217667,35.218811 180.759506,35.693169 
	C170.757782,45.594124 160.876816,55.375538 150.758362,65.392036 
	C133.604843,52.420357 113.869469,48.766087 92.701538,56.257748 
	C74.529083,62.689262 62.392807,75.604889 55.266190,93.674728 
	C43.550491,85.098969 32.345795,76.549454 21.141098,67.999947 
z"/>
<path fill="#34A853" opacity="1.000000" stroke="none" 
	d="
M180.289032,191.004898 
	C165.089844,205.589813 146.629501,213.352631 126.029518,215.841049 
	C83.870934,220.933670 43.987621,200.509155 23.401653,163.784393 
	C22.593554,162.342789 21.953930,160.806747 21.688450,158.715591 
	C33.208500,149.668945 44.275909,141.221420 55.343323,132.773880 
	C63.129910,152.696487 76.606865,166.759872 97.636337,172.248993 
	C114.851311,176.742493 131.549149,174.760101 147.848969,165.950516 
	C159.094391,174.353119 169.691711,182.679016 180.289032,191.004898 
z"/>
<path fill="#4386F4" opacity="1.000000" stroke="none" 
	d="
M180.578903,190.875702 
	C169.691711,182.679016 159.094391,174.353119 148.195679,165.837219 
	C158.303329,158.058578 165.974655,148.618469 168.606216,134.585159 
	C150.391815,134.585159 132.514420,134.585159 114.518677,134.163513 
	C114.240807,133.487030 114.081291,133.232208 113.921776,132.977386 
	C113.858566,120.967110 113.795349,108.956825 114.051712,96.386993 
	C114.666878,95.649017 114.870148,95.396317 114.981087,95.069336 
	C145.684097,95.014511 176.387115,94.959686 207.629745,95.141037 
	C208.432220,95.306274 208.695068,95.235336 208.957916,95.164398 
	C209.944992,103.090797 211.940186,111.044342 211.727570,118.938423 
	C211.122528,141.401260 204.679718,162.150360 190.641479,180.081512 
	C187.678009,183.866760 184.141327,187.203232 180.578903,190.875702 
z"/>
<path fill="#FBBC06" opacity="1.000000" stroke="none" 
	d="
M55.272839,132.380539 
	C44.275909,141.221420 33.208500,149.668945 21.836754,158.370178 
	C18.413462,149.997513 14.170296,141.595291 12.397179,132.700668 
	C7.985521,110.570114 10.795196,89.026337 20.927052,68.289215 
	C32.345795,76.549454 43.550491,85.098969 54.997055,93.904022 
	C51.969570,106.765633 51.456318,119.374352 55.272839,132.380539 
z"/>
<path fill="#307DF3" opacity="1.000000" stroke="none" 
	d="
M114.689926,95.072914 
	C114.870148,95.396317 114.666878,95.649017 114.144577,95.927406 
	C114.078171,95.710403 114.238472,95.393448 114.689926,95.072914 
z"/>
<path fill="#307DF3" opacity="1.000000" stroke="none" 
	d="
M208.729614,95.075424 
	C208.695068,95.235336 208.432220,95.306274 208.093628,95.221817 
	C208.017868,95.066429 208.501328,94.986450 208.729614,95.075424 
z"/>
<path fill="#307DF3" opacity="1.000000" stroke="none" 
	d="
M113.883514,133.239716 
	C114.081291,133.232208 114.240807,133.487030 114.252884,133.852921 
	C114.018730,133.810013 113.931992,133.656021 113.883514,133.239716 
z"/>
</svg>