<svg xmlns="http://www.w3.org/2000/svg" xmlns:xlink="http://www.w3.org/1999/xlink" width="1920" height="4786" viewBox="0 0 1920 4786">
  <defs>
    <clipPath id="clip-Home_4">
      <rect width="1920" height="4786"/>
    </clipPath>
  </defs>
  <g id="Home_4" data-name="Home – 4" clip-path="url(#clip-Home_4)">
    <rect width="1920" height="4786" fill="#fff"/>
    <g id="Icon_material-pets" data-name="Icon material-pets" transform="translate(1922.568 1937.286) rotate(114)" opacity="0.54">
      <path id="Path_2" data-name="Path 2" d="M135.053,69.238c2.062,35.732-26.32,63.027-63.392,60.966S2.865,97.5.8,61.772,27.123-1.255,64.195.806s68.8,32.7,70.858,68.432Z" transform="translate(1.149 98.09)" fill="#ffe3c5"/>
      <path id="Path_3" data-name="Path 3" d="M135.053,69.239c2.062,35.732-26.32,63.027-63.392,60.966S2.865,97.5.8,61.772,27.123-1.256,64.195.806s68.8,32.7,70.858,68.432Z" transform="translate(116 1.292)" fill="#ffe3c5"/>
      <path id="Path_4" data-name="Path 4" d="M135.053,69.239c2.062,35.732-26.319,63.027-63.392,60.966S2.865,97.5.8,61.772,27.123-1.255,64.195.806s68.8,32.7,70.858,68.432Z" transform="translate(277.1 10.252)" fill="#ffe3c5"/>
      <path id="Path_5" data-name="Path 5" d="M135.053,69.238c2.062,35.732-26.32,63.027-63.392,60.966S2.865,97.5.8,61.772,27.123-1.256,64.195.806s68.8,32.7,70.858,68.432Z" transform="translate(403.898 120.49)" fill="#ffe3c5"/>
      <path id="Path_6" data-name="Path 6" d="M354.516,123.459c-24.883-27.7-45.782-51.3-70.933-79.013-13.157-14.662-29.805-29.518-48.959-36.774a61.17,61.17,0,0,0-8.995-2.822c-6.772-1.409-14.022-1.812-21-2.2s-14.23-.791-21.137.114A51.8,51.8,0,0,0,174.763,4.6c-18.437,5.166-33.2,18.275-45.016,31.548-21.836,25.1-40.138,46.523-62.242,71.606C34.287,139.7-6.776,174.821,4.311,227.8c9.31,26.83,30.418,54.059,66.025,63.52,19.824,4.972,81.5-6.817,148.092-3.114l4.833.269c66.588,3.7,130.014,22.193,149.406,19.66,34.74-5.549,52.818-30.856,59.1-56.561,5.277-52.331-40.117-92.261-77.246-128.119Z" transform="translate(67.319 198.025)" fill="#ffe3c5"/>
    </g>
  </g>
</svg>
